<?xml version="1.0" standalone="no"?>
<!DOCTYPE svg PUBLIC "-//W3C//DTD SVG 20010904//EN"
 "http://www.w3.org/TR/2001/REC-SVG-20010904/DTD/svg10.dtd">
<svg version="1.0" xmlns="http://www.w3.org/2000/svg"
 width="1254.000000pt" height="1254.000000pt" viewBox="0 0 1254.000000 1254.000000"
 preserveAspectRatio="xMidYMid meet">

<g transform="translate(0.000000,1254.000000) scale(0.100000,-0.100000)"
fill="#000000" stroke="none">
<path d="M6782 9684 c4 -3 137 -32 297 -64 159 -32 300 -61 313 -65 15 -5 20
-4 13 3 -17 17 -226 79 -340 100 -111 21 -294 38 -283 26z"/>
<path d="M6880 9566 c325 -93 531 -205 715 -390 403 -405 502 -1010 255 -1561
-169 -377 -562 -734 -1002 -911 -203 -82 -353 -116 -605 -139 -258 -24 -417
-61 -609 -143 -194 -83 -365 -201 -519 -357 -217 -220 -356 -477 -432 -795
-37 -157 -43 -382 -14 -548 25 -146 55 -241 122 -381 70 -148 148 -261 261
-377 115 -118 217 -194 362 -270 176 -92 308 -142 506 -191 l95 -23 -65 5
c-36 3 -141 21 -235 40 -93 19 -172 35 -175 35 -13 -1 61 -35 124 -57 123 -42
296 -82 431 -99 178 -23 526 -23 695 0 691 93 1352 434 1826 941 533 570 822
1245 875 2043 19 288 -13 630 -88 927 -204 814 -738 1505 -1493 1934 -310 176
-728 310 -1045 335 l-70 6 85 -24z m410 -2971 c0 -13 32 -216 42 -269 11 -59
14 -63 164 -218 130 -135 160 -171 195 -241 l41 -82 -5 -105 c-6 -122 -26
-198 -117 -450 -116 -324 -142 -479 -104 -623 12 -48 54 -148 69 -165 2 -2 35
13 74 33 134 67 250 79 330 34 49 -27 71 -66 71 -123 0 -168 -225 -300 -630
-371 -268 -46 -524 -19 -715 75 -149 74 -225 164 -225 266 0 101 71 158 195
158 74 0 181 -29 244 -65 18 -11 35 -18 37 -16 15 15 68 153 80 206 33 158 16
242 -139 681 -69 195 -91 299 -85 405 7 127 36 173 243 385 73 74 137 144 143
156 6 11 20 77 31 145 12 68 23 139 26 157 4 19 12 32 20 32 8 0 15 -2 15 -5z
m-1705 -258 c-181 -94 -275 -161 -429 -307 l-70 -65 44 53 c92 111 283 250
463 338 135 66 130 53 -8 -19z m457 -1145 c70 -31 141 -102 174 -175 23 -51
28 -76 29 -142 0 -68 -4 -89 -28 -137 -36 -74 -96 -134 -165 -166 -49 -23 -71
-27 -147 -27 -78 0 -97 4 -147 28 -139 68 -220 235 -184 377 34 130 117 219
246 261 44 15 171 4 222 -19z"/>
<path d="M7271 6358 c-1 -9 -6 -41 -12 -69 -11 -49 -22 -63 -139 -183 -220
-227 -256 -290 -247 -434 6 -97 36 -207 122 -442 88 -240 100 -294 100 -445
-1 -118 -3 -136 -28 -199 -15 -38 -43 -91 -62 -118 l-35 -48 54 -35 c83 -53
75 -57 -25 -14 -251 109 -412 116 -457 23 -49 -103 106 -244 332 -303 127 -33
239 -44 381 -37 72 3 146 9 165 13 34 6 33 7 -35 25 -72 20 -215 84 -250 112
-11 9 15 0 58 -20 216 -98 411 -100 613 -5 73 34 148 99 175 153 23 45 24 60
4 97 -43 85 -206 69 -440 -44 -49 -24 -91 -42 -93 -40 -3 3 19 19 100 76 5 3
-7 32 -27 64 -57 95 -77 159 -82 265 -7 124 12 216 89 435 32 94 70 204 83
245 52 161 68 298 44 371 -22 65 -100 168 -229 302 -71 75 -132 146 -135 159
-3 12 -9 43 -14 68 -5 25 -9 37 -10 28z m64 -477 c81 -37 119 -107 118 -216
-1 -83 -20 -139 -69 -208 -31 -44 -36 -55 -31 -91 5 -37 4 -39 -9 -22 -8 11
-14 30 -14 41 0 20 -4 22 -48 17 -61 -5 -102 14 -142 70 -101 139 -67 349 65
409 51 23 80 23 130 0z"/>
<path d="M7190 5812 c-58 -58 -73 -136 -46 -239 24 -90 75 -153 125 -153 30 0
86 54 112 108 30 62 34 199 6 250 -23 43 -72 72 -121 72 -31 0 -45 -7 -76 -38z"/>
<path d="M7158 9435 c140 -75 262 -165 372 -275 143 -142 237 -290 301 -473
13 -38 25 -65 27 -59 4 14 -47 149 -91 237 -124 248 -315 434 -589 571 -113
57 -127 57 -20 -1z"/>
<path d="M7694 8820 c3 -8 20 -62 39 -120 48 -143 67 -266 68 -439 1 -113 4
-133 9 -91 27 189 -20 482 -100 627 -11 21 -19 31 -16 23z"/>
<path d="M7861 8594 c0 -11 3 -14 6 -6 3 7 2 16 -1 19 -3 4 -6 -2 -5 -13z"/>
<path d="M6200 8527 c-237 -55 -352 -306 -238 -520 37 -68 90 -115 174 -154
83 -38 194 -38 276 -1 79 36 142 98 181 177 28 58 32 75 32 151 0 76 -3 93
-33 152 -74 150 -236 231 -392 195z"/>
<path d="M4585 7913 c-191 -150 -277 -292 -329 -542 -30 -149 -61 -208 -214
-410 -154 -203 -274 -408 -327 -558 -11 -29 -21 -53 -24 -53 -4 0 -4 46 -3
102 4 108 11 136 76 291 52 124 69 211 63 332 -5 99 -34 245 -49 245 -13 0
-117 -223 -136 -290 -25 -96 -22 -258 7 -389 21 -93 23 -118 17 -235 -5 -87
-17 -173 -36 -256 -99 -429 -85 -790 46 -1180 110 -328 280 -598 538 -855 404
-403 983 -707 1576 -825 216 -43 333 -55 560 -55 220 0 343 12 540 51 125 25
344 83 337 91 -2 2 -51 -8 -108 -22 -336 -80 -765 -92 -1129 -29 -472 81 -958
274 -1344 533 -408 274 -786 697 -859 962 -34 121 -29 246 14 378 23 67 34 80
185 221 87 81 135 151 175 254 31 82 74 255 65 264 -8 8 -111 -58 -171 -108
-140 -119 -202 -237 -244 -465 -12 -60 -30 -144 -42 -185 -13 -47 -21 -109
-22 -167 -1 -51 -5 -93 -9 -93 -16 0 -96 290 -120 435 -19 121 -16 495 5 619
40 229 77 316 181 424 81 85 122 109 217 126 223 42 280 73 437 233 67 70 122
131 122 136 0 6 -31 8 -84 4 -213 -15 -372 -97 -502 -259 -58 -73 -264 -282
-264 -268 0 4 20 53 43 108 74 170 163 313 340 546 42 54 89 124 106 155 21
40 56 79 123 137 51 44 115 107 141 140 60 74 130 216 152 312 24 102 34 192
21 192 -6 0 -38 -21 -71 -47z"/>
<path d="M7647 7645 c-79 -156 -162 -270 -297 -406 -116 -117 -222 -203 -337
-274 -73 -44 -85 -60 -15 -19 249 144 462 347 594 567 51 85 123 236 115 243
-1 1 -28 -48 -60 -111z"/>
<path d="M5918 6563 c7 -3 16 -2 19 1 4 3 -2 6 -13 5 -11 0 -14 -3 -6 -6z"/>
<path d="M5775 6535 c-280 -74 -528 -213 -734 -410 -406 -389 -578 -939 -451
-1445 28 -109 62 -205 105 -293 48 -98 57 -95 11 4 -169 367 -175 792 -16
1173 193 463 621 832 1126 970 49 14 80 25 69 25 -11 0 -60 -11 -110 -24z"/>
</g>
</svg>
